<mxfile host="app.diagrams.net" agent="Mozilla/5.0 (Windows NT 10.0; Win64; x64) AppleWebKit/537.36 (KHTML, like Gecko) Chrome/129.0.0.0 Safari/537.36" version="24.7.17">
  <diagram name="第 1 页" id="QaqQcbR4M0p2qfCdDfe7">
    <mxGraphModel dx="794" dy="412" grid="0" gridSize="10" guides="1" tooltips="1" connect="1" arrows="1" fold="1" page="1" pageScale="1" pageWidth="2200" pageHeight="1920" math="0" shadow="0">
      <root>
        <mxCell id="0" />
        <mxCell id="1" parent="0" />
        <mxCell id="p-Rh5KWSWmG6RVlXCQSw-1" value="8" style="ellipse;whiteSpace=wrap;html=1;aspect=fixed;" vertex="1" parent="1">
          <mxGeometry x="320" y="80" width="40" height="40" as="geometry" />
        </mxCell>
        <mxCell id="p-Rh5KWSWmG6RVlXCQSw-2" value="3" style="ellipse;whiteSpace=wrap;html=1;aspect=fixed;" vertex="1" parent="1">
          <mxGeometry x="240" y="140" width="40" height="40" as="geometry" />
        </mxCell>
        <mxCell id="p-Rh5KWSWmG6RVlXCQSw-3" value="10" style="ellipse;whiteSpace=wrap;html=1;aspect=fixed;" vertex="1" parent="1">
          <mxGeometry x="400" y="140" width="40" height="40" as="geometry" />
        </mxCell>
        <mxCell id="p-Rh5KWSWmG6RVlXCQSw-4" value="1" style="ellipse;whiteSpace=wrap;html=1;aspect=fixed;" vertex="1" parent="1">
          <mxGeometry x="200" y="200" width="40" height="40" as="geometry" />
        </mxCell>
        <mxCell id="p-Rh5KWSWmG6RVlXCQSw-5" value="6" style="ellipse;whiteSpace=wrap;html=1;aspect=fixed;" vertex="1" parent="1">
          <mxGeometry x="280" y="200" width="40" height="40" as="geometry" />
        </mxCell>
        <mxCell id="p-Rh5KWSWmG6RVlXCQSw-6" value="4" style="ellipse;whiteSpace=wrap;html=1;aspect=fixed;" vertex="1" parent="1">
          <mxGeometry x="240" y="260" width="40" height="40" as="geometry" />
        </mxCell>
        <mxCell id="p-Rh5KWSWmG6RVlXCQSw-7" value="14" style="ellipse;whiteSpace=wrap;html=1;aspect=fixed;" vertex="1" parent="1">
          <mxGeometry x="440" y="200" width="40" height="40" as="geometry" />
        </mxCell>
        <mxCell id="p-Rh5KWSWmG6RVlXCQSw-8" value="7" style="ellipse;whiteSpace=wrap;html=1;aspect=fixed;" vertex="1" parent="1">
          <mxGeometry x="320" y="260" width="40" height="40" as="geometry" />
        </mxCell>
        <mxCell id="p-Rh5KWSWmG6RVlXCQSw-9" value="13" style="ellipse;whiteSpace=wrap;html=1;aspect=fixed;" vertex="1" parent="1">
          <mxGeometry x="400" y="260" width="40" height="40" as="geometry" />
        </mxCell>
        <mxCell id="p-Rh5KWSWmG6RVlXCQSw-10" value="" style="endArrow=classic;html=1;rounded=0;exitX=0.5;exitY=1;exitDx=0;exitDy=0;entryX=0.5;entryY=0;entryDx=0;entryDy=0;" edge="1" parent="1" source="p-Rh5KWSWmG6RVlXCQSw-1" target="p-Rh5KWSWmG6RVlXCQSw-2">
          <mxGeometry width="50" height="50" relative="1" as="geometry">
            <mxPoint x="180" y="120" as="sourcePoint" />
            <mxPoint x="230" y="70" as="targetPoint" />
          </mxGeometry>
        </mxCell>
        <mxCell id="p-Rh5KWSWmG6RVlXCQSw-12" value="" style="endArrow=classic;html=1;rounded=0;entryX=0.5;entryY=0;entryDx=0;entryDy=0;" edge="1" parent="1" target="p-Rh5KWSWmG6RVlXCQSw-3">
          <mxGeometry width="50" height="50" relative="1" as="geometry">
            <mxPoint x="340" y="120" as="sourcePoint" />
            <mxPoint x="270" y="150" as="targetPoint" />
          </mxGeometry>
        </mxCell>
        <mxCell id="p-Rh5KWSWmG6RVlXCQSw-14" value="" style="endArrow=classic;html=1;rounded=0;exitX=0.5;exitY=1;exitDx=0;exitDy=0;entryX=0.5;entryY=0;entryDx=0;entryDy=0;" edge="1" parent="1" source="p-Rh5KWSWmG6RVlXCQSw-2" target="p-Rh5KWSWmG6RVlXCQSw-4">
          <mxGeometry width="50" height="50" relative="1" as="geometry">
            <mxPoint x="360" y="140" as="sourcePoint" />
            <mxPoint x="280" y="160" as="targetPoint" />
          </mxGeometry>
        </mxCell>
        <mxCell id="p-Rh5KWSWmG6RVlXCQSw-15" value="" style="endArrow=classic;html=1;rounded=0;exitX=0.5;exitY=1;exitDx=0;exitDy=0;entryX=0.5;entryY=0;entryDx=0;entryDy=0;" edge="1" parent="1" source="p-Rh5KWSWmG6RVlXCQSw-2" target="p-Rh5KWSWmG6RVlXCQSw-5">
          <mxGeometry width="50" height="50" relative="1" as="geometry">
            <mxPoint x="370" y="150" as="sourcePoint" />
            <mxPoint x="290" y="170" as="targetPoint" />
          </mxGeometry>
        </mxCell>
        <mxCell id="p-Rh5KWSWmG6RVlXCQSw-16" value="" style="endArrow=classic;html=1;rounded=0;exitX=0.5;exitY=1;exitDx=0;exitDy=0;entryX=0.5;entryY=0;entryDx=0;entryDy=0;" edge="1" parent="1" source="p-Rh5KWSWmG6RVlXCQSw-3" target="p-Rh5KWSWmG6RVlXCQSw-7">
          <mxGeometry width="50" height="50" relative="1" as="geometry">
            <mxPoint x="380" y="160" as="sourcePoint" />
            <mxPoint x="300" y="180" as="targetPoint" />
          </mxGeometry>
        </mxCell>
        <mxCell id="p-Rh5KWSWmG6RVlXCQSw-17" value="" style="endArrow=classic;html=1;rounded=0;exitX=0.5;exitY=1;exitDx=0;exitDy=0;entryX=0.5;entryY=0;entryDx=0;entryDy=0;" edge="1" parent="1" source="p-Rh5KWSWmG6RVlXCQSw-5" target="p-Rh5KWSWmG6RVlXCQSw-6">
          <mxGeometry width="50" height="50" relative="1" as="geometry">
            <mxPoint x="390" y="170" as="sourcePoint" />
            <mxPoint x="310" y="190" as="targetPoint" />
          </mxGeometry>
        </mxCell>
        <mxCell id="p-Rh5KWSWmG6RVlXCQSw-18" value="" style="endArrow=classic;html=1;rounded=0;exitX=0.5;exitY=1;exitDx=0;exitDy=0;entryX=0.5;entryY=0;entryDx=0;entryDy=0;" edge="1" parent="1" source="p-Rh5KWSWmG6RVlXCQSw-5" target="p-Rh5KWSWmG6RVlXCQSw-8">
          <mxGeometry width="50" height="50" relative="1" as="geometry">
            <mxPoint x="400" y="180" as="sourcePoint" />
            <mxPoint x="320" y="200" as="targetPoint" />
          </mxGeometry>
        </mxCell>
        <mxCell id="p-Rh5KWSWmG6RVlXCQSw-19" value="" style="endArrow=classic;html=1;rounded=0;exitX=0.5;exitY=1;exitDx=0;exitDy=0;entryX=0.5;entryY=0;entryDx=0;entryDy=0;" edge="1" parent="1" source="p-Rh5KWSWmG6RVlXCQSw-7" target="p-Rh5KWSWmG6RVlXCQSw-9">
          <mxGeometry width="50" height="50" relative="1" as="geometry">
            <mxPoint x="410" y="190" as="sourcePoint" />
            <mxPoint x="330" y="210" as="targetPoint" />
          </mxGeometry>
        </mxCell>
        <mxCell id="p-Rh5KWSWmG6RVlXCQSw-20" value="8" style="ellipse;whiteSpace=wrap;html=1;aspect=fixed;" vertex="1" parent="1">
          <mxGeometry x="332" y="356" width="40" height="40" as="geometry" />
        </mxCell>
        <mxCell id="p-Rh5KWSWmG6RVlXCQSw-21" value="3" style="ellipse;whiteSpace=wrap;html=1;aspect=fixed;" vertex="1" parent="1">
          <mxGeometry x="252" y="416" width="40" height="40" as="geometry" />
        </mxCell>
        <mxCell id="p-Rh5KWSWmG6RVlXCQSw-22" value="10" style="ellipse;whiteSpace=wrap;html=1;aspect=fixed;" vertex="1" parent="1">
          <mxGeometry x="412" y="416" width="40" height="40" as="geometry" />
        </mxCell>
        <mxCell id="p-Rh5KWSWmG6RVlXCQSw-23" value="1" style="ellipse;whiteSpace=wrap;html=1;aspect=fixed;" vertex="1" parent="1">
          <mxGeometry x="212" y="476" width="40" height="40" as="geometry" />
        </mxCell>
        <mxCell id="p-Rh5KWSWmG6RVlXCQSw-24" value="6" style="ellipse;whiteSpace=wrap;html=1;aspect=fixed;" vertex="1" parent="1">
          <mxGeometry x="292" y="476" width="40" height="40" as="geometry" />
        </mxCell>
        <mxCell id="p-Rh5KWSWmG6RVlXCQSw-25" value="4" style="ellipse;whiteSpace=wrap;html=1;aspect=fixed;fillColor=#fff2cc;strokeColor=#d6b656;" vertex="1" parent="1">
          <mxGeometry x="252" y="536" width="40" height="40" as="geometry" />
        </mxCell>
        <mxCell id="p-Rh5KWSWmG6RVlXCQSw-26" value="14" style="ellipse;whiteSpace=wrap;html=1;aspect=fixed;" vertex="1" parent="1">
          <mxGeometry x="452" y="476" width="40" height="40" as="geometry" />
        </mxCell>
        <mxCell id="p-Rh5KWSWmG6RVlXCQSw-27" value="7" style="ellipse;whiteSpace=wrap;html=1;aspect=fixed;" vertex="1" parent="1">
          <mxGeometry x="332" y="536" width="40" height="40" as="geometry" />
        </mxCell>
        <mxCell id="p-Rh5KWSWmG6RVlXCQSw-28" value="13" style="ellipse;whiteSpace=wrap;html=1;aspect=fixed;" vertex="1" parent="1">
          <mxGeometry x="421" y="536" width="40" height="40" as="geometry" />
        </mxCell>
        <mxCell id="p-Rh5KWSWmG6RVlXCQSw-29" value="" style="endArrow=classic;html=1;rounded=0;exitX=0.5;exitY=1;exitDx=0;exitDy=0;entryX=0.5;entryY=0;entryDx=0;entryDy=0;" edge="1" parent="1" source="p-Rh5KWSWmG6RVlXCQSw-20" target="p-Rh5KWSWmG6RVlXCQSw-21">
          <mxGeometry width="50" height="50" relative="1" as="geometry">
            <mxPoint x="192" y="396" as="sourcePoint" />
            <mxPoint x="242" y="346" as="targetPoint" />
          </mxGeometry>
        </mxCell>
        <mxCell id="p-Rh5KWSWmG6RVlXCQSw-30" value="" style="endArrow=classic;html=1;rounded=0;entryX=0.5;entryY=0;entryDx=0;entryDy=0;" edge="1" parent="1" target="p-Rh5KWSWmG6RVlXCQSw-22">
          <mxGeometry width="50" height="50" relative="1" as="geometry">
            <mxPoint x="352" y="396" as="sourcePoint" />
            <mxPoint x="282" y="426" as="targetPoint" />
          </mxGeometry>
        </mxCell>
        <mxCell id="p-Rh5KWSWmG6RVlXCQSw-31" value="" style="endArrow=classic;html=1;rounded=0;exitX=0.5;exitY=1;exitDx=0;exitDy=0;entryX=0.5;entryY=0;entryDx=0;entryDy=0;" edge="1" parent="1" source="p-Rh5KWSWmG6RVlXCQSw-21" target="p-Rh5KWSWmG6RVlXCQSw-23">
          <mxGeometry width="50" height="50" relative="1" as="geometry">
            <mxPoint x="372" y="416" as="sourcePoint" />
            <mxPoint x="292" y="436" as="targetPoint" />
          </mxGeometry>
        </mxCell>
        <mxCell id="p-Rh5KWSWmG6RVlXCQSw-32" value="" style="endArrow=classic;html=1;rounded=0;exitX=0.5;exitY=1;exitDx=0;exitDy=0;entryX=0.5;entryY=0;entryDx=0;entryDy=0;" edge="1" parent="1" source="p-Rh5KWSWmG6RVlXCQSw-21" target="p-Rh5KWSWmG6RVlXCQSw-24">
          <mxGeometry width="50" height="50" relative="1" as="geometry">
            <mxPoint x="382" y="426" as="sourcePoint" />
            <mxPoint x="302" y="446" as="targetPoint" />
          </mxGeometry>
        </mxCell>
        <mxCell id="p-Rh5KWSWmG6RVlXCQSw-33" value="" style="endArrow=classic;html=1;rounded=0;exitX=0.5;exitY=1;exitDx=0;exitDy=0;entryX=0.5;entryY=0;entryDx=0;entryDy=0;" edge="1" parent="1" source="p-Rh5KWSWmG6RVlXCQSw-22" target="p-Rh5KWSWmG6RVlXCQSw-26">
          <mxGeometry width="50" height="50" relative="1" as="geometry">
            <mxPoint x="392" y="436" as="sourcePoint" />
            <mxPoint x="312" y="456" as="targetPoint" />
          </mxGeometry>
        </mxCell>
        <mxCell id="p-Rh5KWSWmG6RVlXCQSw-34" value="" style="endArrow=classic;html=1;rounded=0;exitX=0.5;exitY=1;exitDx=0;exitDy=0;entryX=0.5;entryY=0;entryDx=0;entryDy=0;" edge="1" parent="1" source="p-Rh5KWSWmG6RVlXCQSw-24" target="p-Rh5KWSWmG6RVlXCQSw-25">
          <mxGeometry width="50" height="50" relative="1" as="geometry">
            <mxPoint x="402" y="446" as="sourcePoint" />
            <mxPoint x="322" y="466" as="targetPoint" />
          </mxGeometry>
        </mxCell>
        <mxCell id="p-Rh5KWSWmG6RVlXCQSw-35" value="" style="endArrow=classic;html=1;rounded=0;exitX=0.5;exitY=1;exitDx=0;exitDy=0;entryX=0.5;entryY=0;entryDx=0;entryDy=0;" edge="1" parent="1" source="p-Rh5KWSWmG6RVlXCQSw-24" target="p-Rh5KWSWmG6RVlXCQSw-27">
          <mxGeometry width="50" height="50" relative="1" as="geometry">
            <mxPoint x="412" y="456" as="sourcePoint" />
            <mxPoint x="332" y="476" as="targetPoint" />
          </mxGeometry>
        </mxCell>
        <mxCell id="p-Rh5KWSWmG6RVlXCQSw-36" value="" style="endArrow=classic;html=1;rounded=0;exitX=0.5;exitY=1;exitDx=0;exitDy=0;entryX=0.5;entryY=0;entryDx=0;entryDy=0;" edge="1" parent="1" source="p-Rh5KWSWmG6RVlXCQSw-26" target="p-Rh5KWSWmG6RVlXCQSw-28">
          <mxGeometry width="50" height="50" relative="1" as="geometry">
            <mxPoint x="422" y="466" as="sourcePoint" />
            <mxPoint x="342" y="486" as="targetPoint" />
          </mxGeometry>
        </mxCell>
        <mxCell id="p-Rh5KWSWmG6RVlXCQSw-37" value="10" style="ellipse;whiteSpace=wrap;html=1;aspect=fixed;fillColor=#d5e8d4;strokeColor=#82b366;" vertex="1" parent="1">
          <mxGeometry x="640" y="587" width="40" height="40" as="geometry" />
        </mxCell>
        <mxCell id="p-Rh5KWSWmG6RVlXCQSw-38" value="14" style="ellipse;whiteSpace=wrap;html=1;aspect=fixed;" vertex="1" parent="1">
          <mxGeometry x="680" y="647" width="40" height="40" as="geometry" />
        </mxCell>
        <mxCell id="p-Rh5KWSWmG6RVlXCQSw-39" value="13" style="ellipse;whiteSpace=wrap;html=1;aspect=fixed;" vertex="1" parent="1">
          <mxGeometry x="640" y="699" width="40" height="40" as="geometry" />
        </mxCell>
        <mxCell id="p-Rh5KWSWmG6RVlXCQSw-40" value="" style="endArrow=classic;html=1;rounded=0;exitX=0.5;exitY=1;exitDx=0;exitDy=0;entryX=0.5;entryY=0;entryDx=0;entryDy=0;" edge="1" parent="1" source="p-Rh5KWSWmG6RVlXCQSw-37" target="p-Rh5KWSWmG6RVlXCQSw-38">
          <mxGeometry width="50" height="50" relative="1" as="geometry">
            <mxPoint x="620" y="607" as="sourcePoint" />
            <mxPoint x="540" y="627" as="targetPoint" />
          </mxGeometry>
        </mxCell>
        <mxCell id="p-Rh5KWSWmG6RVlXCQSw-41" value="" style="endArrow=classic;html=1;rounded=0;exitX=0.5;exitY=1;exitDx=0;exitDy=0;entryX=0.5;entryY=0;entryDx=0;entryDy=0;" edge="1" parent="1" source="p-Rh5KWSWmG6RVlXCQSw-38" target="p-Rh5KWSWmG6RVlXCQSw-39">
          <mxGeometry width="50" height="50" relative="1" as="geometry">
            <mxPoint x="650" y="637" as="sourcePoint" />
            <mxPoint x="570" y="657" as="targetPoint" />
          </mxGeometry>
        </mxCell>
        <mxCell id="p-Rh5KWSWmG6RVlXCQSw-42" value="2" style="ellipse;whiteSpace=wrap;html=1;aspect=fixed;" vertex="1" parent="1">
          <mxGeometry x="220" y="600" width="40" height="40" as="geometry" />
        </mxCell>
        <mxCell id="p-Rh5KWSWmG6RVlXCQSw-44" value="" style="endArrow=classic;html=1;rounded=0;exitX=0.5;exitY=1;exitDx=0;exitDy=0;entryX=0.5;entryY=0;entryDx=0;entryDy=0;" edge="1" parent="1" source="p-Rh5KWSWmG6RVlXCQSw-25" target="p-Rh5KWSWmG6RVlXCQSw-42">
          <mxGeometry width="50" height="50" relative="1" as="geometry">
            <mxPoint x="322" y="526" as="sourcePoint" />
            <mxPoint x="282" y="546" as="targetPoint" />
          </mxGeometry>
        </mxCell>
      </root>
    </mxGraphModel>
  </diagram>
</mxfile>
